<svg version="1.1" id="Layer_1" xmlns="http://www.w3.org/2000/svg" xmlns:xlink="http://www.w3.org/1999/xlink" x="0px" y="0px"
	 width="100%" viewBox="0 0 500 500" enable-background="new 0 0 500 500" xml:space="preserve">
<path fill="#000000" opacity="1.000000" stroke="none" 
	d="
M346.000000,501.000000 
	C230.666687,501.000000 115.833389,501.000000 1.000062,501.000000 
	C1.000041,334.333405 1.000041,167.666794 1.000021,1.000151 
	C167.666550,1.000101 334.333099,1.000101 500.999756,1.000050 
	C500.999817,167.666519 500.999817,334.333038 500.999908,500.999786 
	C449.500000,501.000000 398.000000,501.000000 346.000000,501.000000 
M222.138596,149.930603 
	C221.744736,150.608124 221.350891,151.285629 220.412979,152.361664 
	C215.832916,158.509216 214.811157,165.678513 214.247803,173.055832 
	C213.347412,184.846100 212.228882,196.619705 211.202576,208.400345 
	C221.594391,192.357727 232.116119,176.911224 247.080261,164.146103 
	C257.735199,155.762466 269.203308,149.762115 283.383514,150.583267 
	C289.468597,150.935638 295.603546,150.426590 302.546051,150.600616 
	C312.780396,151.914444 315.472382,154.910843 316.093109,166.864105 
	C316.360901,172.911957 316.628693,178.959793 316.621460,185.907150 
	C316.713501,194.941666 316.805542,203.976181 316.626709,213.907700 
	C316.715973,218.948181 316.805237,223.988663 316.619202,229.921936 
	C316.701721,237.969284 316.784241,246.016647 316.598541,254.948318 
	C316.686188,259.321014 316.773834,263.693726 316.587250,268.955109 
	C316.668732,281.974976 316.750183,294.994812 316.576660,308.918823 
	C316.392120,323.185730 316.260284,337.453583 316.006653,351.719238 
	C315.797974,363.459290 311.292542,373.224915 304.037354,378.071259 
	C303.988708,377.784576 303.825165,377.447662 303.922546,377.224792 
	C304.026978,376.985809 304.491211,376.645569 304.602509,376.706635 
	C306.424255,377.706024 308.214966,378.761963 310.940948,379.942078 
	C331.108887,379.942078 351.276825,379.942078 371.444733,379.942078 
	C361.275330,375.574402 357.640137,367.143158 356.380188,357.402313 
	C355.507629,350.656525 355.445282,343.805939 355.252167,336.088837 
	C355.169647,329.393646 355.087128,322.698456 355.246338,315.092712 
	C355.172485,308.710815 355.098633,302.328949 355.267059,295.043518 
	C355.176758,279.358063 355.086487,263.672607 355.238190,247.079605 
	C355.166016,237.387802 355.093842,227.695999 355.264038,217.092194 
	C355.184814,200.445541 355.105621,183.798904 355.394928,166.568741 
	C355.614441,163.046631 355.833954,159.524506 356.656372,155.630112 
	C358.631989,148.242752 362.088989,141.849335 369.251404,137.402466 
	C369.965912,137.140259 370.680420,136.878067 372.814087,136.095108 
	C368.332245,136.095108 365.367371,136.094299 362.402466,136.095215 
	C325.660767,136.106644 288.919037,136.126282 252.177338,136.124771 
	C242.194260,136.124374 233.126495,138.510986 225.356232,146.182663 
	C224.450745,147.320267 223.545258,148.457886 222.138596,149.930603 
M185.251892,348.850494 
	C185.251892,348.850494 185.335800,348.796204 185.443100,348.031891 
	C185.331604,344.680450 185.220108,341.329041 185.393021,337.086823 
	C185.447037,330.788788 185.571823,324.490417 185.540070,318.192810 
	C185.477478,305.776520 185.328094,293.360687 185.438751,280.039459 
	C185.324600,271.701080 185.210449,263.362701 185.507629,254.169556 
	C185.360168,248.750351 185.212708,243.331131 185.384811,237.040573 
	C185.298935,231.358856 185.213074,225.677139 185.396988,219.103287 
	C185.307144,215.055618 185.217300,211.007935 185.398254,206.066299 
	C185.421585,194.620941 185.429321,183.175522 185.478668,171.730270 
	C185.491867,168.667496 185.330841,165.561417 185.768906,162.550735 
	C187.263092,152.281525 189.452667,142.298782 200.405563,137.127045 
	C200.178162,136.622757 199.950775,136.118469 199.723373,135.614182 
	C190.486343,136.129593 181.249313,136.645004 171.567841,137.018906 
	C171.567841,137.018906 171.105026,136.960922 170.621872,136.227371 
	C157.217667,136.227371 143.813461,136.227371 129.904892,136.227371 
	C132.942200,138.150467 135.535309,139.792328 138.228882,141.759064 
	C138.228882,141.759064 138.552628,141.863190 138.887482,142.417709 
	C140.843079,146.186935 142.798660,149.956177 144.632492,154.167221 
	C144.655487,154.486862 144.780121,154.760178 144.931168,155.517044 
	C145.003250,155.680252 145.075333,155.843445 145.103165,156.866745 
	C145.358551,157.675598 145.613953,158.484436 145.702606,159.682175 
	C145.814148,160.081680 145.925690,160.481171 145.945297,161.811951 
	C146.284088,170.549194 146.622864,179.286438 146.713455,188.929306 
	C146.791214,196.288773 146.868973,203.648254 146.701004,211.915833 
	C146.801361,225.592392 146.901703,239.268936 146.762222,253.842758 
	C146.832657,257.233643 146.903076,260.624542 146.727005,264.921967 
	C146.791443,272.278198 146.855896,279.634460 146.656784,287.759796 
	C146.759094,306.827545 146.861389,325.895325 146.729156,345.728943 
	C146.566666,347.864655 146.404160,350.000366 146.095398,352.943848 
	C144.665695,363.863861 142.532425,374.388336 129.551300,379.879578 
	C151.868332,379.879578 172.665970,379.879578 194.144699,380.142273 
	C213.713638,380.151611 233.286148,380.388489 252.850113,380.081024 
	C263.797943,379.908936 273.138733,375.800323 279.290375,366.240082 
	C279.290375,366.240082 279.331299,366.346863 279.909393,366.024353 
	C282.098328,361.354919 284.287292,356.685486 286.718201,351.362732 
	C286.732300,350.900116 286.746429,350.437531 287.079376,349.235657 
	C288.336121,335.416534 289.592896,321.597443 290.849640,307.778320 
	C286.450409,313.259369 283.016754,319.085632 279.157562,324.614929 
	C266.631134,342.562317 252.641129,358.824829 229.495651,365.122284 
	C221.093842,365.448792 212.694427,365.918701 204.289520,366.058319 
	C197.036285,366.178802 190.062866,365.283264 186.040955,357.195404 
	C185.631104,355.783966 185.221252,354.372498 184.923157,352.315704 
	C184.876724,351.883209 184.830307,351.450745 184.940842,350.551147 
	C184.940842,350.551147 185.004166,350.062439 185.484497,349.885529 
	C185.391769,349.510864 185.299057,349.136200 185.251892,348.850494 
M254.784988,198.588715 
	C253.650284,196.092133 252.515579,193.595551 250.824066,189.873901 
	C243.948181,210.256363 229.792297,224.608704 219.307068,241.285583 
	C217.012283,244.935471 214.916183,248.760452 213.180191,252.703629 
	C198.942032,285.044403 223.919418,315.034149 252.397980,313.389252 
	C277.822540,311.920776 297.194702,288.904907 292.051239,263.786194 
	C289.749603,252.545898 284.070557,243.116928 277.815979,233.824478 
	C270.117523,222.386810 262.633453,210.804886 254.784988,198.588715 
z"/>
<path fill="#E40202" opacity="1.000000" stroke="none" 
	d="
M254.920853,198.937012 
	C262.633453,210.804886 270.117523,222.386810 277.815979,233.824478 
	C284.070557,243.116928 289.749603,252.545898 292.051239,263.786194 
	C297.194702,288.904907 277.822540,311.920776 252.397980,313.389252 
	C223.919418,315.034149 198.942032,285.044403 213.180191,252.703629 
	C214.916183,248.760452 217.012283,244.935471 219.307068,241.285583 
	C229.792297,224.608704 243.948181,210.256363 250.824066,189.873901 
	C252.515579,193.595551 253.650284,196.092133 254.920853,198.937012 
M286.319214,278.625488 
	C288.070709,268.919525 285.820282,260.138916 280.036743,251.925217 
	C285.541412,274.181793 279.376617,291.877655 260.280243,304.844177 
	C273.682800,301.133148 282.360901,292.783600 286.319214,278.625488 
M278.797760,249.515152 
	C278.756866,249.476547 278.716003,249.437943 278.675110,249.399338 
	C278.736298,249.473663 278.797516,249.547974 278.797760,249.515152 
M257.901306,305.717072 
	C257.986115,305.722137 258.070892,305.727203 257.901306,305.717072 
z"/>
<path fill="#EE9392" opacity="1.000000" stroke="none" 
	d="
M172.012283,137.160416 
	C181.249313,136.645004 190.486343,136.129593 199.723373,135.614182 
	C199.950775,136.118469 200.178162,136.622757 200.405563,137.127045 
	C189.452667,142.298782 187.263092,152.281525 185.768906,162.550735 
	C185.330841,165.561417 185.491867,168.667496 185.478668,171.730270 
	C185.429321,183.175522 185.421585,194.620941 185.079422,206.509369 
	C184.516617,206.964111 184.272507,206.970688 184.027206,206.724823 
	C184.026154,206.477478 184.014023,205.982925 184.016571,205.518097 
	C184.009216,200.035095 183.999313,195.016937 183.993561,189.530365 
	C183.997726,182.598648 183.997726,176.135330 183.997726,169.672028 
	C183.433746,169.591583 182.869766,169.511139 182.305801,169.430695 
	C180.320267,172.336426 178.804367,175.767303 176.257278,178.045090 
	C169.755920,183.859070 162.872543,189.259506 155.966400,194.598206 
	C154.079102,196.057129 151.570862,196.712830 148.006851,198.354874 
	C148.006851,200.513794 148.006851,204.256638 148.005493,208.374191 
	C148.003357,209.498260 148.002594,210.247604 147.738037,210.997833 
	C147.298401,211.001724 147.122559,211.004715 146.946716,211.007721 
	C146.868973,203.648254 146.791214,196.288773 147.067932,188.140808 
	C146.223419,176.652771 152.555008,169.398743 159.934402,163.706284 
	C164.599945,160.107269 166.869110,156.089371 168.255905,150.916718 
	C169.486816,146.325592 170.758560,141.745422 172.012283,137.160416 
z"/>
<path fill="#F01313" opacity="1.000000" stroke="none" 
	d="
M286.760559,349.974915 
	C286.746429,350.437531 286.732300,350.900116 286.286560,351.791382 
	C283.680389,356.928955 281.505829,361.637909 279.331299,366.346863 
	C279.331299,366.346863 279.290375,366.240082 278.999512,366.308716 
	C277.571503,367.323730 276.369415,368.202911 275.307892,369.227661 
	C269.228882,375.096313 262.357880,378.556213 253.532425,378.118439 
	C244.443893,377.667603 235.315277,377.958282 226.205521,378.051819 
	C224.106934,378.073334 222.013702,378.614044 219.498093,378.917145 
	C217.399582,378.878326 215.720978,378.838165 214.070679,378.458557 
	C214.850113,377.330292 215.464508,376.291351 216.374817,375.793579 
	C221.902374,372.771271 227.497375,369.872253 233.381943,366.777832 
	C239.468048,364.187164 245.242065,361.750763 250.478546,359.541168 
	C259.272247,348.542847 273.046661,344.840607 282.488617,335.333191 
	C282.782135,335.639771 283.075623,335.946381 283.369141,336.252960 
	C283.466553,334.743866 283.563965,333.234772 283.661377,331.725647 
	C284.090088,331.648682 284.518799,331.571716 284.947510,331.494720 
	C285.300354,333.223846 285.830597,334.938660 285.971313,336.684845 
	C286.327606,341.107361 286.509064,345.543945 286.760559,349.974915 
z"/>
<path fill="#E77070" opacity="1.000000" stroke="none" 
	d="
M354.996185,247.987167 
	C355.086487,263.672607 355.176758,279.358063 354.935852,295.751587 
	C354.398987,297.304047 354.193268,298.148468 353.562195,298.993774 
	C344.809113,299.414917 337.590240,302.532593 330.885590,307.439728 
	C326.887543,310.365845 322.317932,312.511047 318.004883,314.612732 
	C317.613556,312.150299 317.222626,310.082489 316.831665,308.014679 
	C316.750183,294.994812 316.668732,281.974976 316.971558,268.759155 
	C317.728577,273.094299 318.101257,277.625397 318.507843,282.568390 
	C319.872589,282.188293 320.815369,282.012634 321.691620,281.667908 
	C328.777985,278.880005 335.816650,275.966736 342.944366,273.290131 
	C346.485382,271.960419 351.757507,272.104340 353.393768,269.666718 
	C355.257202,266.890594 353.941528,261.979187 354.002716,257.995789 
	C354.012909,257.331543 353.998108,256.666901 353.997650,255.576447 
	C354.332336,252.762695 354.664246,250.374924 354.996185,247.987167 
z"/>
<path fill="#F17373" opacity="1.000000" stroke="none" 
	d="
M146.973511,264.015442 
	C146.903076,260.624542 146.832657,257.233643 147.106613,253.055725 
	C147.636765,246.844376 147.822510,241.420059 148.408875,235.995468 
	C161.086502,233.443146 172.971573,229.946960 183.995132,221.258438 
	C183.995132,227.115463 183.995132,232.447525 183.947418,238.247284 
	C183.829514,241.450363 183.759293,244.185745 183.364944,247.042404 
	C181.723602,248.724884 180.689026,251.167633 179.040741,251.696060 
	C171.544388,254.099350 163.866425,255.931808 156.272110,258.035767 
	C152.575256,259.059937 148.481140,259.550842 146.973511,264.015442 
z"/>
<path fill="#DA1D1D" opacity="1.000000" stroke="none" 
	d="
M301.715851,150.308929 
	C295.603546,150.426590 289.468597,150.935638 283.383514,150.583267 
	C269.203308,149.762115 257.735199,155.762466 246.644958,164.175842 
	C246.209656,164.205582 245.894745,163.893982 245.995850,163.563187 
	C247.003616,162.103119 247.722534,160.722092 248.846344,159.883942 
	C258.847534,152.425003 270.277588,148.894379 282.596680,148.040329 
	C285.697113,147.825394 288.547577,147.612671 289.348694,143.721481 
	C287.780212,143.162659 286.389191,142.667068 284.998169,142.171463 
	C295.068329,140.186096 305.253448,142.132431 315.082458,139.284760 
	C313.365997,138.229248 311.657837,138.021957 309.949341,138.019073 
	C292.641602,137.989761 275.331848,138.148376 258.026672,137.931900 
	C247.281097,137.797485 236.613220,137.354263 228.116211,145.695358 
	C227.703476,146.100510 226.860382,146.067245 226.145874,146.161835 
	C226.074051,146.085541 225.929092,145.934174 225.929092,145.934174 
	C233.126495,138.510986 242.194260,136.124374 252.177338,136.124771 
	C288.919037,136.126282 325.660767,136.106644 362.402466,136.095215 
	C365.367371,136.094299 368.332245,136.095108 372.814087,136.095108 
	C370.680420,136.878067 369.965912,137.140259 368.676086,137.354919 
	C363.936066,137.304214 359.771057,137.278900 355.607025,137.332092 
	C355.188721,137.337433 354.561462,137.721863 354.394745,138.093460 
	C352.762054,141.732819 349.496368,141.077438 346.603821,140.941864 
	C338.702942,140.571579 331.284027,141.463608 323.950165,145.162994 
	C319.885651,147.213257 314.394104,146.296555 310.536560,150.357971 
	C310.536560,148.829376 310.536560,147.300781 310.536560,146.709274 
	C303.137695,147.730209 296.001740,148.714874 288.860016,149.701889 
	C293.141449,149.905792 297.428650,150.107361 301.715851,150.308929 
z"/>
<path fill="#E62424" opacity="1.000000" stroke="none" 
	d="
M302.130951,150.454773 
	C297.428650,150.107361 293.141449,149.905792 288.860016,149.701889 
	C296.001740,148.714874 303.137695,147.730209 310.536560,146.709274 
	C310.536560,147.300781 310.536560,148.829376 310.536560,150.357971 
	C314.394104,146.296555 319.885651,147.213257 323.950165,145.162994 
	C331.284027,141.463608 338.702942,140.571579 346.603821,140.941864 
	C349.496368,141.077438 352.762054,141.732819 354.394745,138.093460 
	C354.561462,137.721863 355.188721,137.337433 355.607025,137.332092 
	C359.771057,137.278900 363.936066,137.304214 368.425446,137.456558 
	C362.088989,141.849335 358.631989,148.242752 356.322144,155.825928 
	C355.987885,156.021759 355.923676,155.999481 355.932983,155.696960 
	C355.899109,154.755951 355.855896,154.117447 355.755615,152.634979 
	C354.562531,154.335266 353.802307,155.418686 353.416016,155.969193 
	C348.462708,155.969193 344.041229,155.579865 339.719177,156.069199 
	C334.489838,156.661240 329.380890,158.308472 324.152130,158.916428 
	C319.600769,159.445587 317.487610,161.399368 317.721130,165.989929 
	C317.068268,165.969849 316.695526,165.952499 316.322784,165.935165 
	C315.472382,154.910843 312.780396,151.914444 302.130951,150.454773 
z"/>
<path fill="#E58786" opacity="1.000000" stroke="none" 
	d="
M316.704163,308.466736 
	C317.222626,310.082489 317.613556,312.150299 318.001221,315.080536 
	C317.997955,324.068970 317.997955,332.194977 317.997955,340.320984 
	C318.614502,340.554871 319.231018,340.788757 319.847565,341.022644 
	C327.726868,327.676727 340.100677,320.751801 353.996094,315.996704 
	C354.004425,316.004517 354.022797,316.022858 354.022705,316.475647 
	C354.014679,319.953949 354.006744,322.979401 353.645508,326.070312 
	C334.650726,333.687805 315.306091,354.244598 317.578491,378.963684 
	C314.775940,379.250244 312.394287,379.527710 310.012665,379.805176 
	C308.214966,378.761963 306.424255,377.706024 304.602509,376.706635 
	C304.491211,376.645569 304.026978,376.985809 303.922546,377.224792 
	C303.825165,377.447662 303.988708,377.784576 304.038635,378.071045 
	C311.292542,373.224915 315.797974,363.459290 316.006653,351.719238 
	C316.260284,337.453583 316.392120,323.185730 316.704163,308.466736 
z"/>
<path fill="#F0A09F" opacity="1.000000" stroke="none" 
	d="
M171.790070,137.089661 
	C170.758560,141.745422 169.486816,146.325592 168.255905,150.916718 
	C166.869110,156.089371 164.599945,160.107269 159.934402,163.706284 
	C152.555008,169.398743 146.223419,176.652771 147.192047,187.687988 
	C146.622864,179.286438 146.284088,170.549194 146.013580,161.144882 
	C146.011032,160.082977 145.940186,159.688126 145.869354,159.293289 
	C145.613953,158.484436 145.358551,157.675598 145.214935,156.312439 
	C145.408661,155.427261 145.301880,155.170258 145.006363,154.987152 
	C144.780121,154.760178 144.655487,154.486862 144.750153,153.493866 
	C144.199081,149.811111 143.846176,146.672928 142.698547,143.858856 
	C142.268890,142.805267 139.988953,142.506256 138.552628,141.863190 
	C138.552628,141.863190 138.228882,141.759064 138.402466,141.276581 
	C142.644287,139.534134 146.646530,137.560165 150.795776,137.176636 
	C157.514755,136.555527 164.330276,136.978699 171.105026,136.960922 
	C171.105026,136.960922 171.567841,137.018906 171.790070,137.089661 
z"/>
<path fill="#E62424" opacity="1.000000" stroke="none" 
	d="
M214.042374,378.798004 
	C215.720978,378.838165 217.399582,378.878326 219.166183,379.151062 
	C210.657318,379.548950 202.060455,379.714264 193.463593,379.879578 
	C172.665970,379.879578 151.868332,379.879578 129.551300,379.879578 
	C142.532425,374.388336 144.665695,363.863861 146.336395,352.522736 
	C146.577393,352.101624 146.914658,352.090485 146.928802,352.501465 
	C146.972305,354.296509 147.001678,355.680573 146.995056,357.457275 
	C146.184311,361.327271 145.409576,364.804657 144.619736,368.349884 
	C149.023148,368.014282 153.097137,368.019104 157.051422,367.333557 
	C164.213013,366.091980 171.323349,364.527222 178.413910,362.916199 
	C181.486816,362.218018 185.261230,362.292969 186.043365,357.948944 
	C190.062866,365.283264 197.036285,366.178802 204.289520,366.058319 
	C212.694427,365.918701 221.093842,365.448792 230.232330,365.136902 
	C231.645386,365.430450 232.321762,365.709381 232.592682,366.001038 
	C229.455124,366.666412 226.754761,367.547028 223.985458,367.932770 
	C210.962326,369.747070 197.669159,364.875183 184.734940,369.457550 
	C184.492355,369.543488 184.073975,369.100983 183.813812,369.174530 
	C182.115433,369.654633 179.924271,369.716095 178.851852,370.833466 
	C175.829712,373.982300 172.412308,375.031342 168.128082,375.088867 
	C161.454407,375.178436 154.789139,375.895844 148.120316,376.347168 
	C148.729080,377.555481 149.432938,377.930725 150.142059,377.941010 
	C171.441849,378.248779 192.742157,378.520569 214.042374,378.798004 
z"/>
<path fill="#D85151" opacity="1.000000" stroke="none" 
	d="
M146.963684,344.963074 
	C146.861389,325.895325 146.759094,306.827545 147.008820,287.135681 
	C147.581421,285.686005 147.802002,284.860504 148.467407,284.035400 
	C155.197189,283.129089 161.564713,282.590607 167.742554,281.205872 
	C173.262238,279.968689 178.572556,277.797424 183.974579,276.385010 
	C184.387451,278.136017 184.801025,279.540314 185.214584,280.944641 
	C185.328094,293.360687 185.477478,305.776520 185.540070,318.192810 
	C185.571823,324.490417 185.447037,330.788788 185.072952,337.538330 
	C184.515762,337.980743 184.278625,337.972687 184.035355,337.972168 
	C184.029266,337.978729 184.033218,337.962616 184.038361,337.499451 
	C184.035126,332.017639 184.026764,326.998993 184.020782,321.517700 
	C184.015228,316.702972 184.007309,312.350861 184.001923,307.530762 
	C184.001129,302.740967 183.940170,298.418243 184.011841,294.097717 
	C184.074677,290.308746 182.114441,289.043884 178.986069,290.637970 
	C171.299393,294.554749 163.066238,295.979156 154.649307,297.117371 
	C150.510117,297.677063 147.253998,299.680206 147.913620,305.039764 
	C148.356979,308.642151 147.999695,312.343140 147.997284,316.463135 
	C147.991333,320.946259 147.988693,324.966248 147.983261,329.453918 
	C147.975372,334.935028 147.970291,339.948425 147.967438,344.970032 
	C147.969681,344.978241 147.957138,344.963898 147.708771,344.966980 
	C147.460419,344.970032 146.963684,344.963074 146.963684,344.963074 
z"/>
<path fill="#EB3434" opacity="1.000000" stroke="none" 
	d="
M316.207947,166.399628 
	C316.695526,165.952499 317.068268,165.969849 317.721252,166.418945 
	C318.123169,172.844437 319.955780,174.569550 325.227997,173.706421 
	C334.827850,172.134796 344.430969,170.583038 354.044403,169.489075 
	C354.033539,175.306488 354.011017,180.657822 353.530243,186.005798 
	C349.622833,186.192703 346.068848,185.916992 342.745209,186.665009 
	C334.453156,188.531219 326.265778,190.862793 318.028748,192.596832 
	C317.646179,189.793274 317.271301,187.400467 316.896454,185.007645 
	C316.628693,178.959793 316.360901,172.911957 316.207947,166.399628 
z"/>
<path fill="#E96666" opacity="1.000000" stroke="none" 
	d="
M353.994873,256.002441 
	C353.998108,256.666901 354.012909,257.331543 354.002716,257.995789 
	C353.941528,261.979187 355.257202,266.890594 353.393768,269.666718 
	C351.757507,272.104340 346.485382,271.960419 342.944366,273.290131 
	C335.816650,275.966736 328.777985,278.880005 321.691620,281.667908 
	C320.815369,282.012634 319.872589,282.188293 318.507843,282.568390 
	C318.101257,277.625397 317.728577,273.094299 317.108704,268.314819 
	C316.773834,263.693726 316.686188,259.321014 316.977753,254.751755 
	C317.744019,258.085358 318.131073,261.615509 318.583923,265.746002 
	C320.817993,265.003052 322.614349,264.302246 324.465729,263.807190 
	C334.301147,261.177185 344.150421,258.598755 353.994873,256.002441 
z"/>
<path fill="#E85D5D" opacity="1.000000" stroke="none" 
	d="
M353.997650,255.576447 
	C344.150421,258.598755 334.301147,261.177185 324.465729,263.807190 
	C322.614349,264.302246 320.817993,265.003052 318.583923,265.746002 
	C318.131073,261.615509 317.744019,258.085358 317.111877,254.309601 
	C316.784241,246.016647 316.701721,237.969284 316.937927,229.472778 
	C317.497955,229.016693 317.739380,229.011902 317.986938,229.461639 
	C318.004089,232.933563 318.015167,235.953110 318.017761,239.433197 
	C318.009277,243.305695 318.009277,246.717667 318.009277,250.691818 
	C327.247650,248.255280 335.651733,246.389877 343.824127,243.794876 
	C354.134277,240.521027 354.053192,240.264206 353.994965,228.964493 
	C353.991547,228.299210 353.972809,227.633972 353.965942,226.521393 
	C353.980865,223.396072 353.991028,220.718063 354.256409,218.033478 
	C354.681641,218.019333 354.851685,218.011765 355.021698,218.004196 
	C355.093842,227.695999 355.166016,237.387802 355.117188,247.533386 
	C354.664246,250.374924 354.332336,252.762695 353.997650,255.576447 
z"/>
<path fill="#EB4645" opacity="1.000000" stroke="none" 
	d="
M316.758972,185.457397 
	C317.271301,187.400467 317.646179,189.793274 318.018982,193.062210 
	C318.016937,198.453094 318.016937,202.967865 318.016937,206.644485 
	C330.708862,204.292313 342.333923,202.137863 353.970337,200.448959 
	C353.972565,205.275223 353.963440,209.635956 353.560364,214.024231 
	C341.453491,217.039627 329.740540,220.027451 318.021027,222.577728 
	C317.642120,219.097015 317.269836,216.053848 316.897552,213.010696 
	C316.805542,203.976181 316.713501,194.941666 316.758972,185.457397 
z"/>
<path fill="#F17B7B" opacity="1.000000" stroke="none" 
	d="
M183.995132,237.779587 
	C183.995132,232.447525 183.995132,227.115463 183.995132,221.258438 
	C172.971573,229.946960 161.086502,233.443146 148.404266,235.532898 
	C148.003998,231.050095 148.008942,227.029633 148.379211,223.025787 
	C150.502899,222.929749 152.415939,223.229752 153.994644,222.637909 
	C164.815506,218.581329 174.956482,213.243988 184.014023,205.982925 
	C184.014023,205.982925 184.026154,206.477478 184.017639,207.186401 
	C184.381836,211.928680 184.754517,215.962051 185.127197,219.995422 
	C185.213074,225.677139 185.298935,231.358856 185.052856,237.420624 
	C184.478653,237.804565 184.236725,237.797546 183.995132,237.779587 
z"/>
<path fill="#DA1D1D" opacity="1.000000" stroke="none" 
	d="
M232.998138,365.988281 
	C232.321762,365.709381 231.645386,365.430450 230.687439,365.135437 
	C252.641129,358.824829 266.631134,342.562317 279.157562,324.614929 
	C283.016754,319.085632 286.450409,313.259369 290.849640,307.778320 
	C289.592896,321.597443 288.336121,335.416534 286.919983,349.605286 
	C286.509064,345.543945 286.327606,341.107361 285.971313,336.684845 
	C285.830597,334.938660 285.300354,333.223846 284.947510,331.494720 
	C284.518799,331.571716 284.090088,331.648682 283.661377,331.725647 
	C283.563965,333.234772 283.466553,334.743866 283.369141,336.252960 
	C283.075623,335.946381 282.782135,335.639771 282.488617,335.333191 
	C273.046661,344.840607 259.272247,348.542847 250.478546,359.541168 
	C245.242065,361.750763 239.468048,364.187164 233.363922,366.542236 
	C233.033813,366.460876 232.998138,365.988281 232.998138,365.988281 
z"/>
<path fill="#E96666" opacity="1.000000" stroke="none" 
	d="
M185.326660,280.492065 
	C184.801025,279.540314 184.387451,278.136017 183.983429,275.913635 
	C183.992966,270.240540 183.992966,265.385468 183.992966,261.439362 
	C174.310623,263.817902 165.603958,266.114136 156.819443,268.058685 
	C151.097595,269.325287 148.014420,272.676971 148.001572,278.550690 
	C147.997574,280.378754 148.014984,282.206879 148.022583,284.034973 
	C147.802002,284.860504 147.581421,285.686005 147.140594,286.751099 
	C146.855896,279.634460 146.791443,272.278198 146.850250,264.468689 
	C148.481140,259.550842 152.575256,259.059937 156.272110,258.035767 
	C163.866425,255.931808 171.544388,254.099350 179.040741,251.696060 
	C180.689026,251.167633 181.723602,248.724884 183.422043,247.460129 
	C184.234283,250.179153 184.665283,252.601730 185.096298,255.024307 
	C185.210449,263.362701 185.324600,271.701080 185.326660,280.492065 
z"/>
<path fill="#EE2B2B" opacity="1.000000" stroke="none" 
	d="
M186.042160,357.572174 
	C185.261230,362.292969 181.486816,362.218018 178.413910,362.916199 
	C171.323349,364.527222 164.213013,366.091980 157.051422,367.333557 
	C153.097137,368.019104 149.023148,368.014282 144.619736,368.349884 
	C145.409576,364.804657 146.184311,361.327271 147.399078,357.437439 
	C159.471283,352.431854 172.867661,355.781128 184.343292,348.946045 
	C184.895264,348.866730 185.115540,348.831451 185.335800,348.796204 
	C185.335800,348.796204 185.251892,348.850494 185.167114,349.130249 
	C185.056290,349.627472 185.030228,349.844940 185.004166,350.062439 
	C185.004166,350.062439 184.940842,350.551147 184.731750,350.963440 
	C184.618896,351.904205 184.715149,352.432617 184.811417,352.961060 
	C185.221252,354.372498 185.631104,355.783966 186.042160,357.572174 
z"/>
<path fill="#DC9D9F" opacity="1.000000" stroke="none" 
	d="
M310.476807,379.873627 
	C312.394287,379.527710 314.775940,379.250244 318.032104,378.978149 
	C321.933105,378.972870 324.959564,378.962280 328.443237,378.964600 
	C333.349915,378.641235 337.876038,378.677948 342.211334,377.786591 
	C343.965759,377.425812 345.504608,375.193787 346.779053,373.534790 
	C348.283203,371.576874 349.374451,369.304749 350.684479,367.193512 
	C351.440308,365.975464 352.888489,364.847870 352.972961,363.607910 
	C353.485168,356.085693 353.694427,348.542877 354.006287,340.607666 
	C354.012329,339.144562 354.016907,338.080719 354.271362,337.013489 
	C354.521240,337.010101 355.020905,337.002197 355.020905,337.002197 
	C355.445282,343.805939 355.507629,350.656525 356.380188,357.402313 
	C357.640137,367.143158 361.275330,375.574402 371.444733,379.942078 
	C351.276825,379.942078 331.108887,379.942078 310.476807,379.873627 
z"/>
<path fill="#DA1D1D" opacity="1.000000" stroke="none" 
	d="
M246.363831,164.364655 
	C232.116119,176.911224 221.594391,192.357727 211.202576,208.400345 
	C212.228882,196.619705 213.347412,184.846100 214.247803,173.055832 
	C214.811157,165.678513 215.832916,158.509216 220.752350,152.212494 
	C221.091705,152.063324 221.226776,152.162949 221.112335,152.513397 
	C217.226852,161.520172 215.142334,170.486389 216.000275,180.408905 
	C215.314926,184.913651 214.642044,189.005020 213.868576,193.708115 
	C219.375717,192.626862 221.671814,189.749939 222.978760,185.752029 
	C223.363052,184.576492 223.774704,182.649689 224.512177,182.472061 
	C229.641434,181.236710 230.325424,177.167221 231.392090,173.007523 
	C232.831207,172.006134 233.934891,171.029861 235.370773,170.020889 
	C236.470078,169.325485 237.237167,168.662796 238.349197,167.934570 
	C241.094345,166.544022 243.494553,165.219009 245.894745,163.893982 
	C245.894745,163.893982 246.209656,164.205582 246.363831,164.364655 
z"/>
<path fill="#DA1D1D" opacity="1.000000" stroke="none" 
	d="
M193.804138,380.010925 
	C202.060455,379.714264 210.657318,379.548950 219.586090,379.149719 
	C222.013702,378.614044 224.106934,378.073334 226.205521,378.051819 
	C235.315277,377.958282 244.443893,377.667603 253.532425,378.118439 
	C262.357880,378.556213 269.228882,375.096313 275.307892,369.227661 
	C276.369415,368.202911 277.571503,367.323730 279.056458,366.303162 
	C273.138733,375.800323 263.797943,379.908936 252.850113,380.081024 
	C233.286148,380.388489 213.713638,380.151611 193.804138,380.010925 
z"/>
<path fill="#DC9D9F" opacity="1.000000" stroke="none" 
	d="
M170.863449,136.594147 
	C164.330276,136.978699 157.514755,136.555527 150.795776,137.176636 
	C146.646530,137.560165 142.644287,139.534134 138.352234,141.114136 
	C135.535309,139.792328 132.942200,138.150467 129.904892,136.227371 
	C143.813461,136.227371 157.217667,136.227371 170.863449,136.594147 
z"/>
<path fill="#D85151" opacity="1.000000" stroke="none" 
	d="
M353.954285,213.996674 
	C353.963440,209.635956 353.972565,205.275223 353.979065,199.986191 
	C353.980469,194.708298 353.984467,190.358734 353.988495,186.009155 
	C354.011017,180.657822 354.033539,175.306488 354.054993,169.165833 
	C354.059692,167.946854 354.065491,167.517197 354.310486,167.097397 
	C354.549683,167.107254 355.026398,167.152252 355.026398,167.152252 
	C355.105621,183.798904 355.184814,200.445541 355.142883,217.548187 
	C354.851685,218.011765 354.681641,218.019333 354.252716,217.627975 
	C353.980652,216.151596 353.967468,215.074127 353.954285,213.996674 
z"/>
<path fill="#E58786" opacity="1.000000" stroke="none" 
	d="
M148.013885,223.009155 
	C148.008942,227.029633 148.003998,231.050095 148.003662,235.533142 
	C147.822510,241.420059 147.636765,246.844376 147.226532,252.607101 
	C146.901703,239.268936 146.801361,225.592392 146.823853,211.461777 
	C147.122559,211.004715 147.298401,211.001724 147.738373,211.458862 
	C148.006287,215.615723 148.010086,219.312439 148.013885,223.009155 
z"/>
<path fill="#D85151" opacity="1.000000" stroke="none" 
	d="
M185.301971,254.596924 
	C184.665283,252.601730 184.234283,250.179153 183.746185,247.338852 
	C183.759293,244.185745 183.829514,241.450363 183.947418,238.247284 
	C184.236725,237.797546 184.478653,237.804565 184.893066,237.856293 
	C185.212708,243.331131 185.360168,248.750351 185.301971,254.596924 
z"/>
<path fill="#EA5656" opacity="1.000000" stroke="none" 
	d="
M316.762146,213.459198 
	C317.269836,216.053848 317.642120,219.097015 318.013184,223.004807 
	C318.001526,225.582718 317.991180,227.295990 317.980835,229.009262 
	C317.739380,229.011902 317.497955,229.016693 317.075562,229.026382 
	C316.805237,223.988663 316.715973,218.948181 316.762146,213.459198 
z"/>
<path fill="#DA1D1D" opacity="1.000000" stroke="none" 
	d="
M279.620361,366.185608 
	C281.505829,361.637909 283.680389,356.928955 286.165588,352.118042 
	C284.287292,356.685486 282.098328,361.354919 279.620361,366.185608 
z"/>
<path fill="#DC9D9F" opacity="1.000000" stroke="none" 
	d="
M138.720062,142.140457 
	C139.988953,142.506256 142.268890,142.805267 142.698547,143.858856 
	C143.846176,146.672928 144.199081,149.811111 144.811035,153.272949 
	C142.798660,149.956177 140.843079,146.186935 138.720062,142.140457 
z"/>
<path fill="#F18383" opacity="1.000000" stroke="none" 
	d="
M185.262085,219.549347 
	C184.754517,215.962051 184.381836,211.928680 184.018707,207.433746 
	C184.272507,206.970688 184.516617,206.964111 184.944031,206.956360 
	C185.217300,211.007935 185.307144,215.055618 185.262085,219.549347 
z"/>
<path fill="#E49594" opacity="1.000000" stroke="none" 
	d="
M355.136536,336.545532 
	C355.020905,337.002197 354.521240,337.010101 354.264709,336.553589 
	C354.005066,332.733032 354.001923,329.368958 353.998779,326.004883 
	C354.006744,322.979401 354.014679,319.953949 354.268005,316.470337 
	C354.513397,316.012207 355.004578,316.003265 355.004578,316.003265 
	C355.087128,322.698456 355.169647,329.393646 355.136536,336.545532 
z"/>
<path fill="#F03939" opacity="1.000000" stroke="none" 
	d="
M185.389450,348.414062 
	C185.115540,348.831451 184.895264,348.866730 184.341873,348.488831 
	C184.019638,344.705627 184.030533,341.335632 184.041443,337.965637 
	C184.278625,337.972687 184.515762,337.980743 184.930756,337.983704 
	C185.220108,341.329041 185.331604,344.680450 185.389450,348.414062 
z"/>
<path fill="#E58786" opacity="1.000000" stroke="none" 
	d="
M355.125458,315.547974 
	C355.004578,316.003265 354.513397,316.012207 354.268097,316.017517 
	C354.022797,316.022858 354.004425,316.004517 353.998383,315.530304 
	C353.990753,309.701691 353.989166,304.347290 353.987549,298.992889 
	C354.193268,298.148468 354.398987,297.304047 354.814728,296.203339 
	C355.098633,302.328949 355.172485,308.710815 355.125458,315.547974 
z"/>
<path fill="#EB3434" opacity="1.000000" stroke="none" 
	d="
M355.210663,166.860504 
	C355.026398,167.152252 354.549683,167.107254 354.287109,166.657288 
	C354.657593,162.804703 355.290619,159.402084 355.923645,155.999481 
	C355.923676,155.999481 355.987885,156.021759 356.020691,156.012085 
	C355.833954,159.524506 355.614441,163.046631 355.210663,166.860504 
z"/>
<path fill="#F03939" opacity="1.000000" stroke="none" 
	d="
M146.846420,345.346008 
	C146.963684,344.963074 147.460419,344.970032 147.720947,345.386902 
	C147.625870,347.899353 147.270264,349.994904 146.914658,352.090485 
	C146.914658,352.090485 146.577393,352.101624 146.409515,352.118835 
	C146.404160,350.000366 146.566666,347.864655 146.846420,345.346008 
z"/>
<path fill="#DA1D1D" opacity="1.000000" stroke="none" 
	d="
M222.639771,149.595490 
	C223.545258,148.457886 224.450745,147.320267 225.642670,146.058411 
	C225.929092,145.934174 226.074051,146.085541 226.028229,146.451752 
	C225.015930,147.906204 224.049423,148.994415 222.971893,149.961060 
	C222.860855,149.839478 222.639771,149.595490 222.639771,149.595490 
z"/>
<path fill="#DA1D1D" opacity="1.000000" stroke="none" 
	d="
M221.024368,152.013245 
	C221.350891,151.285629 221.744736,150.608124 222.389191,149.763046 
	C222.639771,149.595490 222.860855,149.839478 222.817642,150.195312 
	C222.258545,151.088409 221.742661,151.625671 221.226776,152.162949 
	C221.226776,152.162949 221.091705,152.063324 221.024368,152.013245 
z"/>
<path fill="#DC9D9F" opacity="1.000000" stroke="none" 
	d="
M145.785980,159.487732 
	C145.940186,159.688126 146.011032,160.082977 146.059540,160.679245 
	C145.925690,160.481171 145.814148,160.081680 145.785980,159.487732 
z"/>
<path fill="#F03939" opacity="1.000000" stroke="none" 
	d="
M184.867279,352.638367 
	C184.715149,352.432617 184.618896,351.904205 184.653259,351.197021 
	C184.830307,351.450745 184.876724,351.883209 184.867279,352.638367 
z"/>
<path fill="#F03939" opacity="1.000000" stroke="none" 
	d="
M185.244324,349.973999 
	C185.030228,349.844940 185.056290,349.627472 185.144348,349.085754 
	C185.299057,349.136200 185.391769,349.510864 185.244324,349.973999 
z"/>
<path fill="#DC9D9F" opacity="1.000000" stroke="none" 
	d="
M144.968765,155.252106 
	C145.301880,155.170258 145.408661,155.427261 145.237061,155.882385 
	C145.075333,155.843445 145.003250,155.680252 144.968765,155.252106 
z"/>
<path fill="#000000" opacity="1.000000" stroke="none" 
	d="
M286.244965,279.040405 
	C282.360901,292.783600 273.682800,301.133148 260.280243,304.844177 
	C279.376617,291.877655 285.541412,274.181793 280.036743,251.925217 
	C285.820282,260.138916 288.070709,268.919525 286.244965,279.040405 
z"/>
<path fill="#000000" opacity="1.000000" stroke="none" 
	d="
M278.828247,249.568726 
	C278.797516,249.547974 278.736298,249.473663 278.675110,249.399338 
	C278.716003,249.437943 278.756866,249.476547 278.828247,249.568726 
z"/>
<path fill="#000000" opacity="1.000000" stroke="none" 
	d="
M258.028503,305.724670 
	C258.070892,305.727203 257.986115,305.722137 258.028503,305.724670 
z"/>
<path fill="#F18383" opacity="1.000000" stroke="none" 
	d="
M148.379211,223.025787 
	C148.010086,219.312439 148.006287,215.615723 148.002167,211.457977 
	C148.002594,210.247604 148.003357,209.498260 148.346725,208.399078 
	C150.213577,208.376358 152.196213,209.486832 153.189056,208.905869 
	C160.662094,204.532913 167.930649,199.811539 175.284195,195.232925 
	C178.158096,193.443481 181.086075,191.740906 183.989410,189.998779 
	C183.999313,195.016937 184.009216,200.035095 184.016571,205.518097 
	C174.956482,213.243988 164.815506,218.581329 153.994644,222.637909 
	C152.415939,223.229752 150.502899,222.929749 148.379211,223.025787 
z"/>
<path fill="#F18C8B" opacity="1.000000" stroke="none" 
	d="
M183.993576,189.530365 
	C181.086075,191.740906 178.158096,193.443481 175.284195,195.232925 
	C167.930649,199.811539 160.662094,204.532913 153.189056,208.905869 
	C152.196213,209.486832 150.213577,208.376358 148.348083,208.024353 
	C148.006851,204.256638 148.006851,200.513794 148.006851,198.354874 
	C151.570862,196.712830 154.079102,196.057129 155.966400,194.598206 
	C162.872543,189.259506 169.755920,183.859070 176.257278,178.045090 
	C178.804367,175.767303 180.320267,172.336426 182.305801,169.430695 
	C182.869766,169.511139 183.433746,169.591583 183.997726,169.672028 
	C183.997726,176.135330 183.997726,182.598648 183.993576,189.530365 
z"/>
<path fill="#F01C1C" opacity="1.000000" stroke="none" 
	d="
M232.592682,366.001038 
	C232.998138,365.988281 233.033813,366.460876 233.051834,366.696472 
	C227.497375,369.872253 221.902374,372.771271 216.374817,375.793579 
	C215.464508,376.291351 214.850113,377.330292 214.070679,378.458557 
	C192.742157,378.520569 171.441849,378.248779 150.142059,377.941010 
	C149.432938,377.930725 148.729080,377.555481 148.120316,376.347168 
	C154.789139,375.895844 161.454407,375.178436 168.128082,375.088867 
	C172.412308,375.031342 175.829712,373.982300 178.851852,370.833466 
	C179.924271,369.716095 182.115433,369.654633 183.813812,369.174530 
	C184.073975,369.100983 184.492355,369.543488 184.734940,369.457550 
	C197.669159,364.875183 210.962326,369.747070 223.985458,367.932770 
	C226.754761,367.547028 229.455124,366.666412 232.592682,366.001038 
z"/>
<path fill="#E78080" opacity="1.000000" stroke="none" 
	d="
M353.562195,298.993774 
	C353.989166,304.347290 353.990753,309.701691 353.990051,315.522461 
	C340.100677,320.751801 327.726868,327.676727 319.847565,341.022644 
	C319.231018,340.788757 318.614502,340.554871 317.997955,340.320984 
	C317.997955,332.194977 317.997955,324.068970 318.001587,315.475159 
	C322.317932,312.511047 326.887543,310.365845 330.885590,307.439728 
	C337.590240,302.532593 344.809113,299.414917 353.562195,298.993774 
z"/>
<path fill="#F01313" opacity="1.000000" stroke="none" 
	d="
M221.112335,152.513397 
	C221.742661,151.625671 222.258545,151.088409 222.928680,150.316895 
	C224.049423,148.994415 225.015930,147.906204 226.100067,146.528061 
	C226.860382,146.067245 227.703476,146.100510 228.116211,145.695358 
	C236.613220,137.354263 247.281097,137.797485 258.026672,137.931900 
	C275.331848,138.148376 292.641602,137.989761 309.949341,138.019073 
	C311.657837,138.021957 313.365997,138.229248 315.082458,139.284760 
	C305.253448,142.132431 295.068329,140.186096 284.998169,142.171463 
	C286.389191,142.667068 287.780212,143.162659 289.348694,143.721481 
	C288.547577,147.612671 285.697113,147.825394 282.596680,148.040329 
	C270.277588,148.894379 258.847534,152.425003 248.846344,159.883942 
	C247.722534,160.722092 247.003616,162.103119 245.995850,163.563202 
	C243.494553,165.219009 241.094345,166.544022 238.012268,167.958832 
	C236.566452,168.716949 235.802505,169.385269 235.038574,170.053604 
	C233.934891,171.029861 232.831207,172.006134 231.015106,173.066223 
	C225.539368,175.431870 220.776062,177.713699 216.012772,179.995529 
	C215.142334,170.486389 217.226852,161.520172 221.112335,152.513397 
z"/>
<path fill="#EE2B2B" opacity="1.000000" stroke="none" 
	d="
M355.932983,155.696960 
	C355.290619,159.402084 354.657593,162.804703 354.047913,166.647430 
	C354.065491,167.517197 354.059692,167.946854 354.043335,168.699738 
	C344.430969,170.583038 334.827850,172.134796 325.227997,173.706421 
	C319.955780,174.569550 318.123169,172.844437 318.001343,166.421692 
	C317.487610,161.399368 319.600769,159.445587 324.152130,158.916428 
	C329.380890,158.308472 334.489838,156.661240 339.719177,156.069199 
	C344.041229,155.579865 348.462708,155.969193 353.416016,155.969193 
	C353.802307,155.418686 354.562531,154.335266 355.755615,152.634979 
	C355.855896,154.117447 355.899109,154.755951 355.932983,155.696960 
z"/>
<path fill="#E68D8C" opacity="1.000000" stroke="none" 
	d="
M353.645477,326.070312 
	C354.001923,329.368958 354.005066,332.733032 354.014862,336.557007 
	C354.016907,338.080719 354.012329,339.144562 353.636536,340.626007 
	C344.857941,344.189331 338.409302,350.078613 334.545593,357.757263 
	C331.267212,364.272675 330.091888,371.846313 327.985992,378.951691 
	C324.959564,378.962280 321.933105,378.972870 318.453064,378.968994 
	C315.306091,354.244598 334.650726,333.687805 353.645477,326.070312 
z"/>
<path fill="#EB3434" opacity="1.000000" stroke="none" 
	d="
M146.928802,352.501465 
	C147.270264,349.994904 147.625870,347.899353 147.969299,345.383850 
	C147.957138,344.963898 147.969681,344.978241 148.397522,344.981018 
	C151.086716,344.644653 153.369644,344.409882 155.605682,343.948120 
	C165.089111,341.989655 174.558624,339.963837 184.033218,337.962616 
	C184.033218,337.962616 184.029266,337.978729 184.035339,337.972168 
	C184.030533,341.335632 184.019638,344.705627 184.010162,348.532837 
	C172.867661,355.781128 159.471283,352.431854 147.435089,357.044830 
	C147.001678,355.680573 146.972305,354.296509 146.928802,352.501465 
z"/>
<path fill="#F04C4B" opacity="1.000000" stroke="none" 
	d="
M148.000610,316.000000 
	C147.999695,312.343140 148.356979,308.642151 147.913620,305.039764 
	C147.253998,299.680206 150.510117,297.677063 154.649307,297.117371 
	C163.066238,295.979156 171.299393,294.554749 178.986069,290.637970 
	C182.114441,289.043884 184.074677,290.308746 184.011841,294.097717 
	C183.940170,298.418243 184.001129,302.740967 183.591324,307.532410 
	C171.452332,310.668030 159.726471,313.334015 148.000610,316.000000 
z"/>
<path fill="#F03939" opacity="1.000000" stroke="none" 
	d="
M184.038361,337.499451 
	C174.558624,339.963837 165.089111,341.989655 155.605682,343.948120 
	C153.369644,344.409882 151.086716,344.644653 148.395279,344.972839 
	C147.970291,339.948425 147.975372,334.935028 148.442871,329.456299 
	C153.305573,328.489532 157.777618,328.326172 162.090179,327.411194 
	C169.452286,325.849243 176.714340,323.815765 184.018402,321.980347 
	C184.026764,326.998993 184.035126,332.017639 184.038361,337.499451 
z"/>
<path fill="#E85D5D" opacity="1.000000" stroke="none" 
	d="
M148.467407,284.035400 
	C148.014984,282.206879 147.997574,280.378754 148.001572,278.550690 
	C148.014420,272.676971 151.097595,269.325287 156.819443,268.058685 
	C165.603958,266.114136 174.310623,263.817902 183.992966,261.439362 
	C183.992966,265.385468 183.992966,270.240540 183.984116,275.566956 
	C178.572556,277.797424 173.262238,279.968689 167.742554,281.205872 
	C161.564713,282.590607 155.197189,283.129089 148.467407,284.035400 
z"/>
<path fill="#EB4645" opacity="1.000000" stroke="none" 
	d="
M184.020782,321.517700 
	C176.714340,323.815765 169.452286,325.849243 162.090179,327.411194 
	C157.777618,328.326172 153.305573,328.489532 148.445679,328.988586 
	C147.988693,324.966248 147.991333,320.946259 147.997284,316.463135 
	C159.726471,313.334015 171.452332,310.668030 183.588791,308.000427 
	C184.007309,312.350861 184.015228,316.702972 184.020782,321.517700 
z"/>
<path fill="#F03939" opacity="1.000000" stroke="none" 
	d="
M353.530243,186.005798 
	C353.984467,190.358734 353.980469,194.708298 353.967712,199.520645 
	C342.333923,202.137863 330.708862,204.292313 318.016937,206.644485 
	C318.016937,202.967865 318.016937,198.453094 318.026672,193.472961 
	C326.265778,190.862793 334.453156,188.531219 342.745209,186.665009 
	C346.068848,185.916992 349.622833,186.192703 353.530243,186.005798 
z"/>
<path fill="#F04C4B" opacity="1.000000" stroke="none" 
	d="
M317.986938,229.461639 
	C317.991180,227.295990 318.001526,225.582718 318.019775,223.442352 
	C329.740540,220.027451 341.453491,217.039627 353.560364,214.024231 
	C353.967468,215.074127 353.980652,216.151596 353.997498,217.634552 
	C353.991028,220.718063 353.980865,223.396072 353.590942,226.552704 
	C349.482788,228.268478 345.835999,230.089478 342.009491,230.624161 
	C333.404297,231.826553 325.001495,233.241165 318.026245,238.972672 
	C318.015167,235.953110 318.004089,232.933563 317.986938,229.461639 
z"/>
<path fill="#EA5656" opacity="1.000000" stroke="none" 
	d="
M318.017761,239.433197 
	C325.001495,233.241165 333.404297,231.826553 342.009491,230.624161 
	C345.835999,230.089478 349.482788,228.268478 353.586182,227.000031 
	C353.972809,227.633972 353.991547,228.299210 353.994965,228.964493 
	C354.053192,240.264206 354.134277,240.521027 343.824127,243.794876 
	C335.651733,246.389877 327.247650,248.255280 318.009277,250.691818 
	C318.009277,246.717667 318.009277,243.305695 318.017761,239.433197 
z"/>
<path fill="#E49594" opacity="1.000000" stroke="none" 
	d="
M328.443237,378.964600 
	C330.091888,371.846313 331.267212,364.272675 334.545593,357.757263 
	C338.409302,350.078613 344.857941,344.189331 353.635132,341.025269 
	C353.694427,348.542877 353.485168,356.085693 352.972961,363.607910 
	C352.888489,364.847870 351.440308,365.975464 350.684479,367.193512 
	C349.374451,369.304749 348.283203,371.576874 346.779053,373.534790 
	C345.504608,375.193787 343.965759,377.425812 342.211334,377.786591 
	C337.876038,378.677948 333.349915,378.641235 328.443237,378.964600 
z"/>
<path fill="#F01C1C" opacity="1.000000" stroke="none" 
	d="
M216.000275,180.408905 
	C220.776062,177.713699 225.539368,175.431870 230.679642,173.091339 
	C230.325424,177.167221 229.641434,181.236710 224.512177,182.472061 
	C223.774704,182.649689 223.363052,184.576492 222.978760,185.752029 
	C221.671814,189.749939 219.375717,192.626862 213.868576,193.708115 
	C214.642044,189.005020 215.314926,184.913651 216.000275,180.408905 
z"/>
<path fill="#F01C1C" opacity="1.000000" stroke="none" 
	d="
M235.370773,170.020889 
	C235.802505,169.385269 236.566452,168.716949 237.667328,168.024353 
	C237.237167,168.662796 236.470078,169.325485 235.370773,170.020889 
z"/>
</svg>
